<?xml version="1.0" encoding="utf-8"?>
<!-- Generator: Adobe Illustrator 18.0.0, SVG Export Plug-In . SVG Version: 6.00 Build 0)  -->
<!DOCTYPE svg PUBLIC "-//W3C//DTD SVG 1.1//EN" "http://www.w3.org/Graphics/SVG/1.1/DTD/svg11.dtd">
<svg version="1.1" id="Layer_1" xmlns="http://www.w3.org/2000/svg" xmlns:xlink="http://www.w3.org/1999/xlink" x="0px" y="0px"
	 viewBox="0 0 405.6 298.4" enable-background="new 0 0 405.6 298.4" xml:space="preserve">
<g>
	<g>
		<path fill="#106582" d="M118.4,201.2c-9.8,14.3-13.5,15.9-21.3,12.4s-5.5-14.3-0.8-21.4C96.3,192.3,109.3,192.5,118.4,201.2z"/>
		<path fill="#FFFFFF" d="M96.7,193.1c2.3,0.1,12.7,1.2,20.6,8.2c-6.7,9.7-10.3,13-14.3,13c-1.5,0-3.2-0.5-5.6-1.5
			c-2.1-1-3.6-2.6-4.2-4.8C92,203.6,94,197.4,96.7,193.1 M96.3,192.3c-4.7,7-7,17.9,0.8,21.4c2.2,1,4.1,1.6,5.9,1.6
			c4.5,0,8.4-3.7,15.4-14C109.3,192.5,96.3,192.3,96.3,192.3L96.3,192.3z"/>
	</g>
	<path fill="#106582" d="M183.7,193.3c-10.8,17.7-11.9,14.8-19.9,13.8c-8-1-8.1-5.3-8.1-5.3l2.4-15.9
		C158.1,185.9,174.9,184.7,183.7,193.3z"/>
	<path fill="#106582" d="M267.8,234.7c-8.1,17.7-11.2,13.6-18.4,10.9c-5.9-2.2-5.3-6.2-5.3-6.2l2.6-15.5
		C246.7,223.9,260.1,225.4,267.8,234.7z"/>
	<path fill="#106582" d="M339.9,222.7c-2.3,18.7-6.7,19.7-15,18.3c-8.3-1.4-10.4-1.3-10.2-20C314.7,221,325.3,213.6,339.9,222.7z"/>
	<g>
		<path fill="#DF5F58" d="M169.7,210c-1.1,0-2.3-0.1-3.6-0.4c-0.8-0.1-1.6-0.3-2.6-0.4c-9.8-1.2-10-7.1-10-7.4l0-0.2l0-0.2
			c0-0.2,2.7-15.8,5.1-36.9c1.1-9.8-0.9-12.6-3.1-15.6c-2.5-3.5-5.2-7.1-3.2-18.8c3.9-23.3,27.3-46,54.5-41.4
			c9.3,1.6,16,5.4,20.1,11.4c5.9,8.6,4,18.4,3.9,18.8c-0.2,1.2-1.4,1.9-2.5,1.7c-1.2-0.2-1.9-1.4-1.7-2.5c0-0.1,1.6-8.5-3.3-15.6
			c-3.4-5-9.2-8.2-17.3-9.5c-24.7-4.2-46,16.6-49.6,37.9c-1.7,9.9,0.2,12.5,2.4,15.6c2.4,3.4,5.2,7.2,3.9,18.6
			c-2.3,19.7-4.7,34.7-5.1,36.9c0.2,0.8,1.7,2.5,6.2,3.1c1,0.1,1.9,0.3,2.8,0.4c5,0.8,6.3,1.1,15.1-13.2
			c10.7-17.5,22-38.2,22.1-38.4l0.3-0.5l9.2-5.5c1-0.6,2.3-0.3,2.9,0.7c0.6,1,0.3,2.3-0.7,2.9l-8.2,4.9c-1.8,3.3-12.1,22-21.9,38
			C177.9,206.9,174.7,210,169.7,210z"/>
		<path fill="#DF5F58" d="M160.8,166.9c-0.1,0-0.3,0-0.4,0c-12.5-2.5-26.9-9.1-42.8-19.9c-11.8-8-19.8-15.1-20.1-15.4
			c-0.9-0.8-1-2.1-0.2-3c0.8-0.9,2.1-1,3-0.2c0.3,0.3,32.3,28.7,60.8,34.3c1.2,0.2,1.9,1.3,1.7,2.5
			C162.7,166.2,161.8,166.9,160.8,166.9z"/>
		<path fill="#DF5F58" d="M141.1,176.9c-0.5,0-1-0.2-1.5-0.6c-0.9-0.8-0.9-2.2-0.1-3c6.2-6.6,11-11.4,11.1-11.5c0.8-0.8,2.2-0.8,3,0
			c0.8,0.8,0.8,2.2,0,3c0,0-4.9,4.9-11,11.4C142.3,176.7,141.7,176.9,141.1,176.9z"/>
		<path fill="#DF5F58" d="M103.7,217.7c-2.2,0-4.5-0.8-7.4-2.1c-3.5-1.5-5.8-4-6.7-7.1c-1.2-4,0.1-9.1,3.4-14.2
			c3.6-5.5,11.8-42.2,14.7-55.9c0.2-1.2,1.4-1.9,2.5-1.7c1.2,0.2,1.9,1.4,1.7,2.5c-1.1,5.1-10.6,50.2-15.3,57.4
			c-2.7,4.1-3.7,7.9-2.9,10.6c0.6,1.9,2,3.4,4.3,4.4c6.6,3,8.2,3.7,17.6-10.1c3.2-4.6,8.2-10.8,14.9-18.4c0.8-0.9,2.1-1,3-0.2
			c0.9,0.8,1,2.1,0.2,3c-6.6,7.4-11.5,13.4-14.6,17.9C112.2,214,108.4,217.7,103.7,217.7z"/>
		<path fill="#DF5F58" d="M329.1,243.6c-1.5,0-3-0.2-4.5-0.5L324,243c-9.6-1.6-11.6-3.7-11.4-22c0.2-17.4-23.5-35.8-23.8-36
			l-0.2-0.2l-0.2-0.2c-27.3-35.3,5.2-66.2,5.5-66.6c0.9-0.8,2.2-0.8,3,0.1c0.8,0.9,0.8,2.2-0.1,3l0,0c-1.2,1.2-29.8,28.5-5.2,60.6
			c2.7,2.1,25.4,20.5,25.2,39.2c-0.2,16.4,0.9,16.6,7.9,17.8l0.5,0.1c3.4,0.6,5.7,0.7,7.3-0.6c2.4-1.8,4.1-6.8,5.2-15.9
			c1.1-9.2,3.8-14.7,6.6-20.6c3-6.3,6.1-12.8,7.4-24.6c2.5-22.2-3.9-45-4-45.2l-0.2-0.6l0.2-0.6c0.1-0.3,8-29.2-10.2-58.2
			c-17.7-28-53.1-46.7-105.3-55.5C231.4,17,153,1.5,119.8,19.8l-0.4,0.2l-0.5,0c-0.4,0-40.7,2.3-53.3,33
			c-0.3,0.7-7.1,18.3-32.8,21.1C25.9,75,21,77.4,18.1,81.6c-4.6,6.5-2.5,15.3-2.4,15.4l0.1,0.3l0,0.3c0,0.1,0,2.4,2.4,4.7
			c2.4,2.3,7.5,5,18.5,4.8l0.4,0l62.3,20.9c1.7,0.1,12.3,0.1,18.3-13.4c0.5-1.1,1.7-1.6,2.8-1.1c1.1,0.5,1.6,1.7,1.1,2.8
			c-3.9,9-9.9,12.9-14.2,14.5c-4.7,1.8-8.5,1.4-8.7,1.4l-0.2,0l-62.1-20.9c-10,0.1-17.2-2-21.4-6.2c-3.1-3.1-3.5-6.3-3.5-7.3
			c-0.4-1.7-2.1-11,3.1-18.5c3.6-5.2,9.6-8.3,17.8-9.2c23-2.6,29-17.8,29.3-18.5c13-31.7,51.4-35.4,56.5-35.7
			c14.6-7.8,38.4-10.7,70.5-8.5c24,1.6,44.1,5.7,44.3,5.7c53.5,9,89.9,28.4,108.2,57.5c18,28.6,12,56.4,10.8,60.9
			c1,3.8,6.4,25,4,46.3c-1.4,12.5-4.7,19.3-7.8,25.9c-2.7,5.6-5.2,10.9-6.2,19.3c-1.3,10.5-3.4,16.2-6.9,18.8
			C333.3,243.1,331.2,243.6,329.1,243.6z"/>
		<path fill="#DF5F58" d="M257,250.2c-1.8,0-3.7-0.6-6-1.6c-0.7-0.3-1.5-0.6-2.3-0.9c-7.4-2.8-6.7-8.3-6.7-8.5l3.1-18.2
			c2.2-12.8-1.5-28.9-2.6-33.3c-4.2-0.5-8.5-1.2-13-2.1c-19.6-3.6-35.3-8.7-35.5-8.8c-1.1-0.4-1.7-1.6-1.4-2.7
			c0.4-1.1,1.6-1.7,2.7-1.4c0.6,0.2,61.8,20,94.1,8.6c0.7-0.2,1.5-0.1,2.1,0.4c0.6,0.5,0.9,1.2,0.7,2l-4.1,24.2
			c0,0.2-0.1,0.5-0.3,0.7c-0.2,0.4-0.6,0.7-1.3,1.6c-2.8,3-10.2,11.1-16.7,25.4C264.7,246.7,261.2,250.2,257,250.2z M246.2,239.7
			c0,0.4,0.1,2.5,3.9,3.9c0.9,0.3,1.7,0.7,2.5,1c4.9,2.1,6.9,2.9,13.2-10.8c6.8-15,14.6-23.3,17.5-26.5c0.2-0.2,0.5-0.5,0.6-0.7
			l3.4-20.2c-10.5,2.9-24,3.5-40.4,1.7c1.4,6.1,4.4,21,2.3,33.4L246.2,239.7z"/>
		<path fill="#DF5F58" d="M52.9,67c-0.2,0-0.4,0-0.6-0.1c-14.6-4.3-22.2-26.2-22.5-27.1c-0.3-0.8-0.1-1.7,0.5-2.2
			c0.6-0.6,1.5-0.7,2.2-0.4c0.2,0.1,23.5,9,36.3,2.4c1-0.5,2.3-0.1,2.9,0.9c0.5,1,0.1,2.3-0.9,2.9c-10.9,5.6-27.4,1.7-35.3-0.7
			c2.8,6.3,9,17.6,17.9,20.2c1.1,0.3,1.8,1.5,1.4,2.6C54.7,66.4,53.8,67,52.9,67z"/>
		<path fill="#DF5F58" d="M122,70.9c-0.2,0-0.5,0-0.8-0.1C98.1,62,94.5,36.7,94.4,35.6c-0.1-0.7,0.2-1.4,0.8-1.9
			c0.6-0.5,1.3-0.6,2-0.4l12.4,4c2.2-0.9,8.7-2.9,14.5-0.3c3.9,1.7,6.6,5,8.2,9.8c0.4,1.1-0.2,2.3-1.4,2.7c-1.1,0.4-2.3-0.2-2.7-1.4
			c-1.2-3.6-3.2-6-5.9-7.2c-5.3-2.3-11.8,0.6-11.8,0.6c-0.5,0.2-1,0.3-1.5,0.1l-9.6-3.1c1.8,6.9,7.5,22.3,23.4,28.3
			c1.1,0.4,1.7,1.6,1.2,2.7C123.7,70.4,122.8,70.9,122,70.9z"/>
		<circle fill="#DF5F58" cx="83.4" cy="60.7" r="3.8"/>
		<path fill="#DF5F58" d="M366.9,118.2c-2.7,0-5.5-0.9-7.8-2.7c-2.2-1.7-3.6-4.2-3.9-7c-0.3-2.8,0.4-5.6,2.2-7.8
			c3-3.8,8.6-4.5,12.5-1.5c0.9,0.7,1.1,2.1,0.4,3c-0.7,0.9-2.1,1.1-3,0.4c-2-1.6-4.9-1.2-6.5,0.8c-2.1,2.7-1.7,6.7,1,8.8
			c1.8,1.4,4,2,6.2,1.7c2.2-0.3,4.2-1.4,5.6-3.1c3.8-4.8,2.9-11.7-1.8-15.5c-3-2.4-6.8-3.4-10.6-3c-3.8,0.4-7.2,2.4-9.6,5.4
			c-0.7,0.9-2.1,1.1-3,0.4c-0.9-0.7-1.1-2.1-0.4-3c3.1-3.9,7.5-6.4,12.4-7c4.9-0.6,9.8,0.8,13.7,3.9c6.6,5.2,7.8,14.9,2.5,21.5
			C374.4,116.6,370.7,118.2,366.9,118.2z"/>
	</g>
	<path fill="#DF5F58" d="M22.6,95.9c-0.9,0-1.8-0.6-2-1.5c-1.6-5.5,1.6-10.4,1.8-10.6c0.7-1,2-1.2,3-0.6c1,0.7,1.2,2,0.6,3
		c-0.1,0.1-2.2,3.5-1.2,7c0.3,1.1-0.3,2.3-1.5,2.6C23,95.8,22.8,95.9,22.6,95.9z"/>
	<path fill="#DF5F58" d="M83.3,101.6c-0.3,0-0.5,0-0.8-0.2c-1.1-0.4-1.6-1.7-1.2-2.8c2.7-6.6-3.2-11.3-3.5-11.5
		c-0.9-0.7-1.1-2.1-0.4-3c0.7-0.9,2-1.1,3-0.4c3,2.3,7.9,8.7,4.8,16.5C85,101.1,84.2,101.6,83.3,101.6z"/>
	<path fill="#EDEDED" d="M166.3,252.6c-0.9,0-1.6-0.5-2-1.3L127.9,161c-0.4-1.1,0.1-2.3,1.2-2.8c1.1-0.4,2.3,0.1,2.8,1.2l33.2,82.3
		l2.6-26.3c0.1-1.2,1.2-2,2.3-1.9c1.2,0.1,2,1.2,1.9,2.3l-3.4,35c-0.1,1-0.8,1.8-1.8,1.9C166.5,252.6,166.4,252.6,166.3,252.6z"/>
	<path fill="#EDEDED" d="M166.3,252.6c-0.5,0-1-0.2-1.5-0.6c-0.8-0.7-0.9-1.9-0.3-2.7l40.9-61.4c0.7-1,2-1.2,3-0.6
		c1,0.7,1.2,2,0.6,3l-33.6,50.5l58.5-45.6c0.9-0.7,2.3-0.6,3,0.4c0.7,0.9,0.6,2.3-0.4,3l-68.9,53.6
		C167.2,252.5,166.7,252.6,166.3,252.6z"/>
	<path fill="#EDEDED" d="M212.3,291.8c-15.9,0-28.1-3.6-36.5-10.8c-14.2-12.2-11.8-30.1-11.6-30.8c0.2-1.2,1.3-2,2.4-1.8
		c1.2,0.2,2,1.3,1.8,2.4l0,0c0,0.2-2.2,16.3,10.2,27c19.1,16.4,58.7,9,88.6-0.1c46.4-14.2,81.9-16.7,105.3-7.6
		c18.1,7,21.9,18.5,22.1,19c0.4,1.1-0.3,2.3-1.4,2.7c-1.1,0.4-2.3-0.3-2.7-1.4c0-0.1-3.6-10.3-20-16.5c-15.5-5.8-45.8-9.2-102,7.9
		C246.4,288.5,227.6,291.8,212.3,291.8z"/>
	<g>
		<path fill="#DF5F58" d="M162,23.2c0-0.8,0.6-1.5,1.4-1.5l4.6-0.1c1.7,0,3,0.4,3.8,1.3c0.7,0.7,1.2,1.7,1.2,3l0,0
			c0,2.1-1,3.4-2.6,4l2,2.4c0.3,0.4,0.5,0.6,0.5,1.1c0,0.8-0.7,1.3-1.4,1.4c-0.7,0-1.1-0.3-1.4-0.7l-2.9-3.5l-2.3,0l0,2.9
			c0,0.8-0.6,1.5-1.4,1.5c-0.8,0-1.5-0.6-1.5-1.4L162,23.2z M167.9,28c1.4,0,2.2-0.8,2.2-1.9l0,0c0-1.2-0.9-1.9-2.3-1.8l-2.9,0
			l0.1,3.8L167.9,28z"/>
		<path fill="#DF5F58" d="M177.9,28.2L177.9,28.2c0.2-3.8,3.3-6.7,7.3-6.5c4,0.2,6.8,3.4,6.6,7.1l0,0c-0.2,3.7-3.3,6.6-7.3,6.4
			C180.4,35.1,177.7,31.9,177.9,28.2z M188.8,28.7L188.8,28.7c0.1-2.3-1.4-4.2-3.8-4.4s-4,1.6-4.1,3.9l0,0c-0.1,2.2,1.5,4.2,3.8,4.3
			C187,32.8,188.7,31,188.8,28.7z"/>
		<path fill="#DF5F58" d="M196.6,29.3L196.6,29.3c0.4-3.8,3.6-6.5,7.6-6.1c2,0.2,3.2,0.8,4.3,1.7c0.3,0.2,0.5,0.7,0.5,1.2
			c-0.1,0.8-0.8,1.4-1.6,1.3c-0.4,0-0.7-0.2-0.8-0.4c-0.7-0.6-1.5-1.1-2.8-1.2c-2.1-0.2-3.9,1.4-4.2,3.7l0,0
			c-0.3,2.4,1.2,4.3,3.5,4.6c1,0.1,2,0,2.8-0.5l0.2-1.9l-1.9-0.2c-0.7-0.1-1.2-0.7-1.1-1.4c0.1-0.7,0.7-1.2,1.4-1.1l3.3,0.3
			c0.8,0.1,1.4,0.8,1.3,1.6l-0.3,3.2c-0.1,0.8-0.5,1.4-1.2,1.7c-1.1,0.5-2.8,1-4.7,0.8C198.7,36.3,196.2,33.1,196.6,29.3z"/>
		<path fill="#DF5F58" d="M213.8,36.4l1.7-10.1c0.1-0.8,0.9-1.3,1.7-1.2l7.2,1.2c0.7,0.1,1.2,0.8,1.1,1.5c-0.1,0.7-0.8,1.2-1.5,1.1
			l-5.8-0.9l-0.4,2.6l4.9,0.8c0.7,0.1,1.2,0.8,1.1,1.5c-0.1,0.7-0.8,1.2-1.5,1l-4.9-0.8l-0.4,2.7l5.9,1c0.7,0.1,1.2,0.8,1.1,1.5
			c-0.1,0.7-0.8,1.2-1.5,1.1l-7.3-1.2C214.1,37.9,213.6,37.2,213.8,36.4z"/>
		<path fill="#DF5F58" d="M230.9,29c0.2-0.8,0.9-1.3,1.7-1.1l4.4,1c1.6,0.4,2.8,1.1,3.4,2.1c0.6,0.9,0.7,2,0.4,3.2l0,0
			c-0.5,2-1.7,3-3.4,3.3l1.4,2.8c0.2,0.4,0.3,0.7,0.2,1.2c-0.2,0.8-1,1.2-1.6,1c-0.6-0.1-1-0.6-1.2-1l-2-4.1l-2.3-0.5l-0.6,2.8
			c-0.2,0.8-0.9,1.3-1.7,1.1c-0.8-0.2-1.3-0.9-1.1-1.7L230.9,29z M235.5,35.1c1.4,0.3,2.3-0.2,2.6-1.3l0,0c0.3-1.2-0.4-2-1.8-2.3
			l-2.8-0.6l-0.8,3.7L235.5,35.1z"/>
		<path fill="#DF5F58" d="M254.7,35.3c0-0.2,0-0.4,0.1-0.5c0.3-0.8,1.1-1.1,1.9-0.8c0.6,0.2,1,0.8,1,1.4l-0.3,8.5l5.2-6.6
			c0.4-0.6,1.1-0.8,1.8-0.6l0.2,0.1c0.7,0.2,1,0.8,1,1.6l-0.2,8.4l5.2-6.7c0.4-0.5,1-0.7,1.7-0.5c0.7,0.3,1.1,1,0.9,1.8
			c-0.1,0.2-0.2,0.4-0.3,0.5l-7,8.5c-0.5,0.6-1.2,0.8-1.8,0.6l-0.3-0.1c-0.7-0.2-1-0.8-1-1.6l0.1-8l-5,6.2c-0.5,0.6-1.1,0.8-1.8,0.6
			l-0.3-0.1c-0.7-0.2-1-0.8-1-1.6L254.7,35.3z"/>
		<path fill="#DF5F58" d="M272.1,52l8.6-7.3c0.6-0.5,1.3-0.6,2-0.3l0.2,0.1c0.7,0.3,1,1,1,1.8l-0.4,11.3c0,0.2,0,0.4-0.1,0.6
			c-0.3,0.7-1.1,1-1.8,0.7c-0.6-0.3-0.8-0.8-0.8-1.5l0.1-2.2l-5.2-2.5l-1.8,1.5c-0.5,0.4-1.1,0.5-1.6,0.2c-0.7-0.3-0.9-1.1-0.6-1.8
			C271.8,52.3,272,52.1,272.1,52z M281,52.2l0.3-4.7l-3.5,3.1L281,52.2z"/>
		<path fill="#DF5F58" d="M293.7,53.5l-2.4-1.4c-0.6-0.4-0.8-1.2-0.4-1.8c0.4-0.6,1.2-0.8,1.8-0.4l7.2,4.4c0.6,0.4,0.8,1.2,0.4,1.8
			c-0.4,0.6-1.2,0.8-1.8,0.4l-2.4-1.4l-4.7,7.8c-0.4,0.7-1.3,0.9-2,0.5c-0.7-0.4-0.9-1.3-0.5-2L293.7,53.5z"/>
		<path fill="#DF5F58" d="M298.7,67.4l6.2-8.1c0.5-0.6,1.4-0.8,2-0.3l5.8,4.4c0.6,0.4,0.7,1.3,0.2,1.8c-0.4,0.6-1.2,0.7-1.8,0.2
			l-4.6-3.6L305,64l4,3.1c0.6,0.4,0.7,1.3,0.2,1.8c-0.4,0.6-1.2,0.7-1.8,0.2l-4-3.1l-1.7,2.2l4.7,3.6c0.6,0.4,0.7,1.3,0.2,1.8
			c-0.4,0.6-1.2,0.7-1.8,0.2l-5.9-4.5C298.4,68.9,298.3,68,298.7,67.4z"/>
		<path fill="#DF5F58" d="M317.6,69.5c0.6-0.6,1.5-0.6,2,0l3.2,3.2c1.2,1.2,1.8,2.4,1.8,3.6c0,1-0.4,2-1.3,2.9l0,0
			c-1.5,1.5-3.1,1.6-4.7,1l-0.3,3.1c-0.1,0.5-0.1,0.8-0.4,1.1c-0.6,0.6-1.4,0.5-1.9,0c-0.5-0.5-0.5-1-0.5-1.5l0.5-4.5l-1.6-1.6l-2,2
			c-0.6,0.6-1.5,0.6-2,0c-0.6-0.6-0.6-1.5,0-2L317.6,69.5z M318.3,77.1c1,1,2.1,1,2.9,0.2l0,0c0.9-0.9,0.7-1.9-0.3-2.9l-2-2
			l-2.7,2.7L318.3,77.1z"/>
		<path fill="#DF5F58" d="M321.2,88.1c0-0.4,0.2-0.8,0.5-1.1c0.6-0.5,1.4-0.3,1.9,0.3c0.2,0.3,0.3,0.6,0.3,0.8
			c0,1.2,0.3,2.4,1.1,3.4c0.7,0.9,1.5,1.2,2.1,0.8l0,0c0.6-0.4,0.6-1-0.3-3.1c-1.1-2.5-1.5-4.3,0.6-5.9l0,0c1.9-1.4,4.3-0.9,5.9,1.3
			c1,1.3,1.5,2.6,1.6,4c0,0.4-0.1,0.9-0.5,1.2c-0.6,0.5-1.4,0.3-1.9-0.3c-0.2-0.2-0.2-0.4-0.3-0.7c-0.1-1.1-0.4-2-1-2.7
			c-0.7-0.9-1.4-1-1.9-0.7l0,0c-0.7,0.5-0.6,1.1,0.3,3.3c1.1,2.5,1.2,4.3-0.6,5.7l0,0c-2.1,1.6-4.4,0.9-6.2-1.4
			C321.9,91.6,321.3,89.9,321.2,88.1z"/>
	</g>
</g>
</svg>
