<?xml version="1.0" encoding="utf-8"?>
<!-- Generator: Adobe Illustrator 18.0.0, SVG Export Plug-In . SVG Version: 6.00 Build 0)  -->
<!DOCTYPE svg PUBLIC "-//W3C//DTD SVG 1.1//EN" "http://www.w3.org/Graphics/SVG/1.1/DTD/svg11.dtd">
<svg version="1.1" id="Layer_1" xmlns="http://www.w3.org/2000/svg" xmlns:xlink="http://www.w3.org/1999/xlink" x="0px" y="0px"
	 viewBox="0 0 474 165" enable-background="new 0 0 474 165" xml:space="preserve">
<g>
	<polygon fill="#D5EBF5" points="161.3,140 221.9,35 282.5,140 	"/>
	<g>
		<g>
			<polygon fill="#DF5F58" points="249.6,63.1 186.2,76.9 270.5,98.8 			"/>
			<path fill="#106582" d="M14.4,122.9c-0.7,0-1.3-0.5-1.5-1.2c-0.2-0.8,0.3-1.7,1.1-1.9l160.2-41.4c0.8-0.2,1.7,0.3,1.9,1.1
				c0.2,0.8-0.3,1.7-1.1,1.9L14.8,122.8C14.6,122.9,14.5,122.9,14.4,122.9z"/>
			<path fill="#106582" d="M438.7,93.4c-0.1,0-0.2,0-0.2,0L257.4,64.7c-0.9-0.1-1.4-0.9-1.3-1.8c0.1-0.9,0.9-1.4,1.8-1.3L439,90.3
				c0.9,0.1,1.4,0.9,1.3,1.8C440.2,92.9,439.5,93.4,438.7,93.4z"/>
			<path fill="#2F99CF" d="M424.8,96.6c-0.1,0-0.2,0-0.3,0L261.6,70.7c-0.9-0.1-1.6-1-1.4-1.9s1-1.6,1.9-1.4l162.9,25.9
				c0.9,0.1,1.6,1,1.4,1.9C426.3,96,425.6,96.6,424.8,96.6z"/>
			<path fill="#106582" d="M442.8,104.8c-0.1,0-0.2,0-0.2,0L264.9,76.6c-0.9-0.1-1.4-0.9-1.3-1.8c0.1-0.9,0.9-1.4,1.8-1.3L443,101.7
				c0.9,0.1,1.4,0.9,1.3,1.8C444.2,104.2,443.5,104.8,442.8,104.8z"/>
			<path fill="#DF5F58" d="M449.3,111.4c-0.1,0-0.2,0-0.3,0L267.9,82.6c-0.9-0.1-1.6-1-1.4-1.9c0.1-0.9,1-1.6,1.9-1.4L449.5,108
				c0.9,0.1,1.6,1,1.4,1.9C450.8,110.8,450.1,111.4,449.3,111.4z"/>
			<path fill="#106582" d="M399.9,108.8c-0.1,0-0.2,0-0.2,0l-128-20.3c-0.9-0.1-1.4-0.9-1.3-1.8c0.1-0.9,0.9-1.4,1.8-1.3l128,20.3
				c0.9,0.1,1.4,0.9,1.3,1.8C401.3,108.3,400.7,108.8,399.9,108.8z"/>
			<path fill="#2F99CF" d="M431.6,119.4c-0.1,0-0.2,0-0.3,0L275,94.5c-0.9-0.1-1.6-1-1.4-1.9s1-1.6,1.9-1.4L431.8,116
				c0.9,0.1,1.6,1,1.4,1.9C433.1,118.8,432.4,119.4,431.6,119.4z"/>
			<path fill="#106582" d="M459.6,129.1c-0.1,0-0.2,0-0.2,0l-181.1-28.8c-0.9-0.1-1.4-0.9-1.3-1.8c0.1-0.9,0.9-1.5,1.8-1.3
				L459.8,126c0.9,0.1,1.4,0.9,1.3,1.8C461,128.6,460.4,129.1,459.6,129.1z"/>
			<path fill="#106582" d="M299.8,152.5C299.8,152.5,299.8,152.5,299.8,152.5H144c-0.9,0-1.7-0.5-2.2-1.2s-0.4-1.7,0-2.5l77.9-134.9
				c0.4-0.8,1.3-1.2,2.2-1.2s1.7,0.5,2.2,1.2l77.8,134.7c0.3,0.4,0.5,0.9,0.5,1.5C302.3,151.3,301.2,152.5,299.8,152.5z
				 M148.3,147.5h147.2L221.9,20L148.3,147.5z"/>
		</g>
	</g>
</g>
</svg>
