<?xml version="1.0" encoding="utf-8"?>
<!-- Generator: Adobe Illustrator 18.0.0, SVG Export Plug-In . SVG Version: 6.00 Build 0)  -->
<!DOCTYPE svg PUBLIC "-//W3C//DTD SVG 1.1//EN" "http://www.w3.org/Graphics/SVG/1.1/DTD/svg11.dtd">
<svg version="1.1" id="Layer_1" xmlns="http://www.w3.org/2000/svg" xmlns:xlink="http://www.w3.org/1999/xlink" x="0px" y="0px"
	 viewBox="0 0 247.5 243" enable-background="new 0 0 247.5 243" xml:space="preserve">
<g>
	<circle fill="#106582" cx="128.7" cy="132" r="101.6"/>
	<circle fill="#FFFFFF" cx="128.7" cy="132" r="35.5"/>
	<circle fill="#28CAB8" cx="128.7" cy="132" r="6.7"/>
	<path fill="#FFFFFF" d="M128.7,213.7C83.6,213.7,47,177,47,132c0-0.9,0.8-1.7,1.7-1.7s1.7,0.8,1.7,1.7c0,43.2,35.1,78.3,78.3,78.3
		c0.9,0,1.7,0.8,1.7,1.7S129.6,213.7,128.7,213.7z"/>
	<path fill="#FFFFFF" d="M208.7,133.7c-0.9,0-1.7-0.8-1.7-1.7c0-43.2-35.1-78.3-78.3-78.3c-0.9,0-1.7-0.8-1.7-1.7s0.8-1.7,1.7-1.7
		c45,0,81.7,36.6,81.7,81.7C210.4,132.9,209.6,133.7,208.7,133.7z"/>
	<path fill="#FFFFFF" d="M73.7,133.7c-0.9,0-1.7-0.8-1.7-1.7c0-31.3,25.4-56.7,56.7-56.7c0.9,0,1.7,0.8,1.7,1.7s-0.8,1.7-1.7,1.7
		c-29.4,0-53.3,23.9-53.3,53.3C75.4,132.9,74.6,133.7,73.7,133.7z"/>
	<path fill="#DF5F58" d="M62.6,62l-7,3.7c-0.9,0.5-2-0.3-1.8-1.3l1.3-7.8c0.1-0.4-0.1-0.8-0.4-1.1l-5.7-5.5c-0.7-0.7-0.3-2,0.7-2.1
		l7.9-1.1c0.4-0.1,0.8-0.3,0.9-0.7l3.5-7.1c0.5-0.9,1.8-0.9,2.2,0l3.5,7.1c0.2,0.4,0.5,0.6,0.9,0.7l7.9,1.1c1,0.1,1.4,1.4,0.7,2.1
		l-5.7,5.5c-0.3,0.3-0.4,0.7-0.4,1.1l1.3,7.8c0.2,1-0.9,1.8-1.8,1.3l-7-3.7C63.4,61.8,63,61.8,62.6,62z"/>
	<path fill="#106582" d="M88.7,26c-0.8,0-1.5-0.5-1.9-1.2L85,21.2c0,0-0.1-0.1-0.1-0.1l-3.2-1.9c-0.7-0.4-1.1-1.1-1.1-2
		s0.4-1.6,1.1-2l3.2-1.9c0,0,0.1-0.1,0.1-0.1l1.8-3.5c0.4-0.8,1.1-1.2,1.9-1.2c0.8,0,1.5,0.5,1.9,1.2l1.8,3.5c0,0,0,0.1,0.1,0.1
		l3.2,1.9c0.7,0.4,1.1,1.1,1.1,2s-0.4,1.6-1.1,2l-3.2,1.9c0,0-0.1,0.1-0.1,0.1l-1.8,3.6C90.2,25.5,89.5,26,88.7,26z M88.7,10.4
		c-0.1,0-0.1,0.1-0.1,0.1l-1.8,3.5c-0.2,0.4-0.5,0.7-0.8,0.9l-3.2,1.9c-0.1,0.1-0.1,0.2-0.1,0.3s0,0.2,0.1,0.3l3.2,1.9
		c0.4,0.2,0.6,0.5,0.8,0.9l1.8,3.6c0,0.1,0.2,0.1,0.2,0l1.8-3.5c0.2-0.4,0.5-0.7,0.8-0.9l3.2-1.9c0.1-0.1,0.1-0.2,0.1-0.3
		s0-0.2-0.1-0.3L91.4,15c-0.4-0.2-0.6-0.5-0.8-0.9l-1.8-3.5C88.8,10.5,88.7,10.4,88.7,10.4z"/>
	<path fill="#FFFFFF" d="M20.8,70.8l1.4,2.8c0.1,0.2,0.2,0.3,0.4,0.4l2.5,1.5c0.6,0.4,0.6,1.4,0,1.7l-2.5,1.5
		c-0.2,0.1-0.3,0.2-0.4,0.4l-1.4,2.8c-0.3,0.7-1.2,0.7-1.6,0l-1.4-2.8c-0.1-0.2-0.2-0.3-0.4-0.4L15,77.2c-0.6-0.4-0.6-1.4,0-1.7
		l2.5-1.5c0.2-0.1,0.3-0.2,0.4-0.4l1.4-2.8C19.6,70.2,20.5,70.2,20.8,70.8z"/>
	<g>
		<path fill="#DF5F58" d="M232.5,209.8c-0.5,0-0.9-0.2-1.3-0.5l-8.2-8.2c-0.7-0.7-0.7-1.8,0-2.5c0.7-0.7,1.8-0.7,2.5,0l8.2,8.2
			c0.7,0.7,0.7,1.8,0,2.5C233.4,209.6,232.9,209.8,232.5,209.8z"/>
		<path fill="#DF5F58" d="M224.3,209.8c-0.5,0-0.9-0.2-1.3-0.5c-0.7-0.7-0.7-1.8,0-2.5l8.2-8.2c0.7-0.7,1.8-0.7,2.5,0
			c0.7,0.7,0.7,1.8,0,2.5l-8.2,8.2C225.2,209.6,224.8,209.8,224.3,209.8z"/>
	</g>
	<path fill="#FFFFFF" d="M209.5,155.9l1.4,2.8c0.1,0.2,0.2,0.3,0.4,0.4l2.5,1.5c0.6,0.4,0.6,1.4,0,1.7l-2.5,1.5
		c-0.2,0.1-0.3,0.2-0.4,0.4l-1.4,2.8c-0.3,0.7-1.2,0.7-1.6,0l-1.4-2.8c-0.1-0.2-0.2-0.3-0.4-0.4l-2.5-1.5c-0.6-0.4-0.6-1.4,0-1.7
		l2.5-1.5c0.2-0.1,0.3-0.2,0.4-0.4l1.4-2.8C208.2,155.2,209.1,155.2,209.5,155.9z"/>
	<path fill="#106582" d="M215.6,49.8l-4.9,0.8c-0.6,0.1-1.1-0.6-0.8-1.2l2.4-4.4c0.1-0.2,0.1-0.5,0-0.7l-2.3-4.5
		c-0.3-0.6,0.2-1.3,0.8-1.1l4.9,0.9c0.3,0,0.5,0,0.7-0.2l3.5-3.6c0.5-0.5,1.3-0.2,1.3,0.5l0.7,5c0,0.3,0.2,0.5,0.4,0.6l4.5,2.3
		c0.6,0.3,0.6,1.1,0,1.4l-4.5,2.2c-0.2,0.1-0.4,0.3-0.4,0.6l-0.8,4.9c-0.1,0.6-0.9,0.9-1.4,0.4l-3.5-3.6
		C216.1,49.8,215.8,49.7,215.6,49.8z"/>
	<path fill="#FFFFFF" d="M40.8,209l1.4,2.8c0.1,0.2,0.2,0.3,0.4,0.4l2.5,1.5c0.6,0.4,0.6,1.4,0,1.7l-2.5,1.5
		c-0.2,0.1-0.3,0.2-0.4,0.4l-1.4,2.8c-0.3,0.7-1.2,0.7-1.6,0l-1.4-2.8c-0.1-0.2-0.2-0.3-0.4-0.4l-2.5-1.5c-0.6-0.4-0.6-1.4,0-1.7
		l2.5-1.5c0.2-0.1,0.3-0.2,0.4-0.4l1.4-2.8C39.5,208.4,40.4,208.4,40.8,209z"/>
	<circle fill="#106582" cx="15" cy="92" r="2.2"/>
	<circle fill="#106582" cx="194.2" cy="30.4" r="2.2"/>
	<circle fill="#106582" cx="232.5" cy="172" r="2.2"/>
	<circle fill="#106582" cx="56.6" cy="220.6" r="2.2"/>
	<circle fill="#FFFFFF" cx="34.5" cy="196" r="2.2"/>
</g>
</svg>
