<?xml version="1.0" encoding="utf-8"?>
<!-- Generator: Adobe Illustrator 18.0.0, SVG Export Plug-In . SVG Version: 6.00 Build 0)  -->
<!DOCTYPE svg PUBLIC "-//W3C//DTD SVG 1.1//EN" "http://www.w3.org/Graphics/SVG/1.1/DTD/svg11.dtd">
<svg version="1.1" id="Layer_1" xmlns="http://www.w3.org/2000/svg" xmlns:xlink="http://www.w3.org/1999/xlink" x="0px" y="0px"
	 viewBox="0 0 191.2 187.6" enable-background="new 0 0 191.2 187.6" xml:space="preserve">
<g>
	<g>
		<g>
			<path fill="#FFFFFF" d="M147.4,47.9l-9.6-7.9c-0.5-0.4-1.1-0.3-1.5,0.1c-0.5,0.6-1.3,1-2,1c-0.6,0-1.2-0.2-1.7-0.6
				c-1.1-0.9-1.3-2.6-0.3-3.7c0.4-0.5,0.3-1.1-0.1-1.5l-6.1-5c-0.2-0.2-0.5-0.3-0.8-0.2c-0.3,0-0.5,0.2-0.7,0.4l-7.2,8.7
				c-0.4,0.5-0.3,1.1,0.1,1.5l6.1,5c0.5,0.4,1.1,0.3,1.5-0.1c0.5-0.6,1.2-0.9,2-0.9c0.6,0,1.2,0.2,1.7,0.6c1.1,0.9,1.3,2.5,0.4,3.7
				c-0.4,0.5-0.3,1.1,0.2,1.5l1.8,1.5l-2.7,4.4L96.7,92.3l-31-37.2l-3.5-9.8c2.9-1.7,6.2-2.6,9.6-2.6c2.7,0,5.3,0.5,7.7,1.6
				c0.2,0.1,0.5,0.2,0.7,0.2c0,0,0,0,0,0c0.7,0,1.4-0.5,1.6-1.2c0.3-0.7,0-1.4-0.5-1.9c-4.1-3.4-9.3-5.3-14.6-5.3
				c-4.5,0-8.8,1.4-12.3,4l-9.9,7.5c-0.2,0.2-0.4,0.4-0.4,0.7c0,0.3,0,0.6,0.2,0.8c0.4,0.6,0.6,1.3,0.5,2c-0.1,0.7-0.5,1.3-1,1.7
				c-0.5,0.3-1,0.5-1.6,0.5c-0.8,0-1.6-0.4-2.1-1.1c-0.2-0.2-0.4-0.4-0.7-0.4c-0.3,0-0.6,0-0.8,0.2l-6.3,4.7
				C32.2,57,32,57.2,32,57.5c0,0.3,0,0.6,0.2,0.8l6.8,9.1c0.2,0.3,0.5,0.4,0.9,0.4c0.2,0,0.5-0.1,0.6-0.2l6.3-4.7
				c0.5-0.4,0.6-1,0.2-1.5c-0.8-1.2-0.6-2.8,0.6-3.7c0.5-0.3,1-0.5,1.6-0.5c0.8,0,1.6,0.4,2.1,1c0.4,0.5,1,0.5,1.5,0.2l1.9-1.4
				l3.6,3.7l29.6,41.7l-32.1,36.7c-0.2,0.2-0.3,0.5-0.3,0.8c0,0.3,0.2,0.6,0.4,0.7l12,9.9c0.2,0.2,0.4,0.2,0.7,0.2c0,0,0.1,0,0.1,0
				c0.3,0,0.6-0.2,0.7-0.4l26.9-36.1l25.6,36c0.2,0.2,0.4,0.4,0.7,0.4c0.1,0,0.1,0,0.2,0c0.2,0,0.5-0.1,0.6-0.2l12.5-9.4
				c0.2-0.2,0.4-0.4,0.4-0.7c0-0.3-0.1-0.6-0.2-0.8l-31-37.2l30.1-40.3l8.8-5.7c4.2,4.4,6.1,10.6,5,16.6c-0.1,0.5,0,1,0.4,1.4
				c0.3,0.4,0.8,0.6,1.4,0.6c0.7,0,1.2-0.4,1.5-1C156.9,65.2,154.8,54.1,147.4,47.9z"/>
			<path fill="#FFFFFF" d="M122.9,153c-0.2,0-0.3,0-0.5,0c-0.9-0.1-1.6-0.6-2.2-1.3L96.4,118l-25.1,33.7c-0.5,0.7-1.3,1.2-2.2,1.3
				c-0.1,0-0.3,0-0.4,0c-0.8,0-1.5-0.3-2.1-0.8l-12-9.9c-0.7-0.6-1.1-1.4-1.2-2.3c-0.1-0.9,0.2-1.8,0.8-2.4l31-35.4L56.6,62.1
				l-2.2-2.2l-0.4,0.3c-1.4,1-3.5,0.8-4.5-0.6c-0.2-0.2-0.4-0.2-0.7-0.1c-0.2,0.2-0.3,0.4-0.1,0.7c1,1.5,0.7,3.4-0.7,4.5l-6.3,4.7
				c-1.4,1-3.5,0.7-4.6-0.7l-6.8-9.1c-0.5-0.7-0.7-1.6-0.6-2.4c0.1-0.9,0.6-1.6,1.3-2.1l6.3-4.7c0.7-0.5,1.6-0.7,2.4-0.6
				c0.9,0.1,1.6,0.6,2.1,1.3c0.2,0.2,0.5,0.3,0.7,0.1c0.1-0.1,0.2-0.2,0.2-0.3c0-0.1,0-0.2-0.1-0.4c-0.5-0.7-0.7-1.6-0.6-2.4
				c0.1-0.9,0.6-1.6,1.3-2.2l9.9-7.5c3.9-2.9,8.6-4.4,13.6-4.4c5.8,0,11.5,2.1,16,5.8c1.3,1.1,1.7,2.8,1.2,4.3
				c-0.6,1.6-2,2.6-3.7,2.6c-0.6,0-1.1-0.1-1.6-0.3c-2.2-1-4.5-1.4-6.8-1.4c-2.4,0-4.8,0.5-6.9,1.5l2.7,7.7L96.7,89l29.8-34l1.6-2.6
				l-0.3-0.3c-1.4-1.1-1.6-3.1-0.5-4.5c0.2-0.2,0.1-0.5-0.1-0.7c-0.2-0.2-0.5-0.1-0.7,0.1c-1.1,1.3-3.2,1.5-4.5,0.4l-6.1-5
				c-0.7-0.6-1.1-1.3-1.2-2.2c-0.1-0.9,0.2-1.7,0.7-2.4l7.2-8.7c0.6-0.7,1.3-1.1,2.2-1.2l0.3,0c0.8,0,1.5,0.3,2.1,0.8l6.1,5
				c0.7,0.6,1.1,1.3,1.2,2.2c0.1,0.9-0.2,1.7-0.7,2.4c-0.2,0.2-0.1,0.5,0.1,0.7c0.2,0.2,0.5,0.1,0.7-0.1c0.6-0.7,1.5-1.2,2.5-1.2
				c0.8,0,1.5,0.3,2.1,0.8l9.6,7.9c8.2,6.8,10.5,19,5.5,29.1c-0.7,1.3-2,2.2-3.5,2.2c-1.2,0-2.3-0.5-3-1.4c-0.7-0.9-1-2.1-0.8-3.2
				c0.9-4.7-0.3-9.6-3.2-13.4l-6.8,4.4L108,102.4l29.9,35.8c0.6,0.7,0.8,1.6,0.7,2.5c-0.1,0.9-0.6,1.7-1.3,2.2l-12.5,9.4
				C124.3,152.7,123.6,153,122.9,153z M96.5,110.6l26.7,37.6l10.6-8l-31.3-37.6l31.4-42l10.6-6.8l1.2,1.3c4,4.2,6.1,9.8,5.9,15.5
				c2.5-7.6,0.4-16-5.6-20.9l-8.8-7.3c-0.8,0.6-1.9,1-2.9,1c-1.1,0-2.2-0.4-3.1-1.1c-1.8-1.5-2.2-3.9-1.2-5.9l-4.5-3.7l-5.8,7
				l4.5,3.7c0.8-0.6,1.8-0.9,2.9-0.9c1.1,0,2.2,0.4,3.1,1.1c1.8,1.5,2.2,3.8,1.3,5.8l2.5,2.1l-3.9,6.3l-33.2,38L63.8,56.3l-4.2-11.9
				l1.6-0.9c4.9-2.9,11-3.6,16.4-2.1c-3.2-2-6.9-3-10.7-3c-4,0-7.8,1.2-11,3.6l-9.2,6.9c0.4,0.8,0.5,1.7,0.4,2.6
				c-0.2,1.3-0.9,2.4-1.9,3.2c-1.8,1.3-4.4,1.2-6-0.2l-4.6,3.5l5.5,7.3l4.7-3.5c-0.8-2-0.3-4.4,1.6-5.7c1.7-1.3,4.3-1.2,5.9,0.1
				l2.6-2l5.2,5.3l30.6,43.1l-32.5,37.1l10.2,8.5L96.5,110.6z"/>
		</g>
		<g>
			<g>
				<polygon fill="#FFFFFF" points="59.1,59.9 122.9,149.7 135.4,140.4 64.8,55.7 				"/>
				<polygon fill="#DF5F58" points="61.5,58.1 125.3,147.9 135.4,140.4 64.8,55.7 				"/>
				<path fill="#106582" d="M39.8,67.8c-0.1,0-0.1,0-0.2,0c-0.3,0-0.5-0.2-0.7-0.4l-6.8-9.1c-0.4-0.5-0.3-1.2,0.2-1.5l6.3-4.7
					c0.5-0.4,1.2-0.3,1.5,0.2c0.9,1.1,2.6,1.4,3.7,0.5c1.2-0.9,1.4-2.5,0.5-3.7c-0.2-0.2-0.2-0.5-0.2-0.8s0.2-0.5,0.4-0.7l9.9-7.5
					c3.5-2.6,7.7-4,12.3-4c5.3,0,10.5,1.9,14.6,5.3c0.6,0.5,0.8,1.2,0.5,1.9c-0.3,0.7-0.9,1.2-1.6,1.2c0,0,0,0,0,0
					c-0.2,0-0.5-0.1-0.7-0.2c-2.4-1.1-5-1.6-7.7-1.6c-3.4,0-6.7,0.9-9.6,2.6l3.5,10c0.2,0.4,0,0.9-0.4,1.2l-5.7,4.2
					c-0.4,0.3-1,0.3-1.4-0.1L54.7,57l-1.9,1.4c-0.5,0.4-1.1,0.3-1.5-0.2c-0.9-1.1-2.6-1.3-3.7-0.5c-1.2,0.9-1.4,2.5-0.6,3.7
					c0.3,0.5,0.2,1.1-0.2,1.5l-6.3,4.7C40.3,67.7,40.1,67.8,39.8,67.8z M34.5,57.9l5.5,7.4l4.7-3.5c-0.9-2-0.3-4.4,1.6-5.7
					c1.7-1.3,4.3-1.2,5.9,0.1l1.9-1.4c0.4-0.3,1-0.3,1.4,0.1l3.7,3.7l4.3-3.2l-3.6-10.1c-0.2-0.5,0-1,0.4-1.3
					c3.4-2.2,7.4-3.4,11.5-3.4c2,0,3.9,0.3,5.8,0.8c-3.2-2-7-3.1-10.8-3.1c-4.1,0-7.8,1.2-11,3.6l-9.2,6.9c0.9,2,0.3,4.4-1.5,5.8
					c-1.8,1.3-4.4,1.2-6-0.2L34.5,57.9z"/>
				<path fill="#106582" d="M122.9,150.8c-0.1,0-0.1,0-0.2,0c-0.3,0-0.5-0.2-0.7-0.4L58.2,60.6c-0.3-0.5-0.2-1.1,0.2-1.5l5.7-4.2
					c0.5-0.3,1.1-0.3,1.5,0.2l70.6,84.7c0.2,0.2,0.3,0.5,0.2,0.8c0,0.3-0.2,0.6-0.4,0.7l-12.5,9.4
					C123.3,150.7,123.1,150.8,122.9,150.8z M60.6,60.2l62.5,88l10.7-8l-69.2-83L60.6,60.2z"/>
				<polygon fill="#106582" points="61.3,63.1 68.3,60 74.6,67.5 67.2,71.4 				"/>
				<polygon fill="#106582" points="94.5,104.5 102.2,100.6 135.4,140.4 125.3,147.9 				"/>
				
					<rect x="33.5" y="59.1" transform="matrix(0.6002 0.7999 -0.7999 0.6002 63.7678 -7.2915)" fill="#106582" width="11.4" height="2.2"/>
			</g>
			<g>
				<polygon fill="#FFFFFF" points="129.1,56.9 56.6,139.8 68.6,149.7 134.6,61.4 				"/>
				<polygon fill="#DF5F58" points="131.5,58.8 59,141.7 68.6,149.7 134.6,61.4 				"/>
				<path fill="#106582" d="M150.8,75.2L150.8,75.2c-0.5,0-1-0.2-1.4-0.6c-0.3-0.4-0.5-0.9-0.4-1.4c1.1-6.1-0.7-12.2-5-16.6
					l-8.9,5.8c-0.4,0.3-0.9,0.2-1.3-0.1l-5.4-4.5c-0.4-0.3-0.5-0.9-0.2-1.4l2.8-4.5l-1.8-1.5c-0.5-0.4-0.5-1-0.2-1.5
					c0.9-1.1,0.7-2.8-0.4-3.7c-1.1-0.9-2.8-0.7-3.7,0.3c-0.4,0.4-1.1,0.5-1.5,0.1l-6.1-5c-0.5-0.4-0.5-1.1-0.1-1.5l7.2-8.7
					c0.2-0.2,0.4-0.4,0.7-0.4c0.3,0,0.6,0.1,0.8,0.2l6.1,5c0.5,0.4,0.5,1.1,0.1,1.5c-0.9,1.1-0.8,2.8,0.3,3.7
					c1.1,0.9,2.8,0.7,3.7-0.3c0.2-0.2,0.4-0.4,0.7-0.4c0.3,0,0.6,0.1,0.8,0.2l9.6,7.9c7.4,6.2,9.5,17.3,5,26.4
					C152,74.9,151.4,75.2,150.8,75.2z M144.2,54.1c0.3,0,0.5,0.1,0.7,0.3c4.5,4.3,6.8,10.2,6.5,16.2c2.5-7.6,0.4-16.1-5.5-21.1
					l-8.8-7.3c-1.7,1.3-4.3,1.3-6-0.1c-1.8-1.5-2.2-3.9-1.2-5.9l-4.5-3.7l-5.9,7.1l4.5,3.7c1.7-1.2,4.3-1.2,5.9,0.2
					c1.7,1.5,2.2,3.8,1.3,5.8l1.8,1.5c0.4,0.3,0.5,0.9,0.2,1.4l-2.8,4.5l4.1,3.4l9-5.8C143.8,54.1,144,54.1,144.2,54.1z"/>
				<path fill="#106582" d="M68.6,150.8c-0.3,0-0.5-0.1-0.7-0.2l-12-9.9c-0.2-0.2-0.4-0.5-0.4-0.7s0.1-0.6,0.3-0.8l72.5-82.9
					c0.4-0.4,1.1-0.5,1.5-0.1l5.4,4.5c0.4,0.4,0.5,1,0.2,1.5l-65.9,88.3c-0.2,0.2-0.4,0.4-0.7,0.4C68.7,150.8,68.7,150.8,68.6,150.8
					z M58.2,139.6l10.3,8.5l64.6-86.6l-3.8-3.2L58.2,139.6z"/>
				<polygon fill="#106582" points="126.6,59.7 131.2,65.8 125.4,73.7 119.9,67.4 				"/>
				<polygon fill="#106582" points="94,101.7 99.6,108.2 68.6,149.7 59,141.7 				"/>
				
					<rect x="123.2" y="31.8" transform="matrix(0.7697 0.6384 -0.6384 0.7697 52.5841 -70.7108)" fill="#106582" width="2.2" height="11.4"/>
			</g>
		</g>
	</g>
	<path fill="#106582" d="M95.6,180.5c-47.8,0-86.7-38.9-86.7-86.7C8.9,46,47.8,7.1,95.6,7.1s86.7,38.9,86.7,86.7
		C182.3,141.6,143.4,180.5,95.6,180.5z M95.6,9.3C49,9.3,11.1,47.2,11.1,93.8s37.9,84.5,84.5,84.5c46.6,0,84.5-37.9,84.5-84.5
		S142.2,9.3,95.6,9.3z"/>
</g>
</svg>
